<svg width="96" height="96" viewBox="0 0 96 96" fill="none" xmlns="http://www.w3.org/2000/svg">
<rect width="96" height="96" rx="48" fill="white"/>
<circle cx="48" cy="48" r="48" fill="#EEEEEE"/>
<path d="M77.8425 55.59H73.4214H70.0544H68.0547C68.0547 53.8203 69.2558 52.3828 70.7381 52.3828C70.77 52.3828 70.8019 52.3892 70.8339 52.3892C71.7219 50.7217 73.2808 49.61 75.0569 49.61C76.7947 49.61 78.3344 50.6833 79.2289 52.2997C79.7975 51.7886 80.5067 51.4819 81.2797 51.4819C83.1836 51.4819 84.7169 53.3219 84.7169 55.59H80.053H77.8425ZM56.4844 33.9636C54.0247 30.1494 55.2386 24.9936 59.1997 22.4381L59.8833 23.505C61.3592 20.2147 64.7517 17.9147 68.7 17.9147V35.6694H72.2394C72.2458 33.6058 74.2328 31.9319 76.6925 31.9319C79.1522 31.9319 81.1392 33.6058 81.1392 35.6694H76.6925C76.6797 37.7522 71.0894 39.4453 64.1958 39.4453C57.2958 39.4453 51.6992 37.7522 51.6992 35.6694H58.0242C57.4492 35.1775 56.9125 34.6281 56.4844 33.9636ZM45.2783 41.0233H39.9181H35.8547H33.4461C33.4461 39.6306 34.8964 38.4933 36.6789 38.4933C36.8322 38.4933 36.9792 38.5125 37.1197 38.5253C37.9822 37.8033 39.2025 37.3497 40.5697 37.3497C43.17 37.3497 45.2783 38.9917 45.2783 41.0233ZM29.5808 23.2175L32.2386 26.035C32.2897 25.3067 32.4814 24.5783 32.8392 23.8947C34.2639 21.1603 37.7139 20.1381 40.5569 21.6139L36.1933 30.0089H37.88C37.8864 28.8525 39.0044 27.9133 40.3844 27.9133C41.7772 27.9133 42.8953 28.8525 42.8953 30.0153L40.3844 30.0217C40.3653 31.1908 37.2219 32.1364 33.3375 32.1364C29.4467 32.1364 26.2906 31.1844 26.2906 30.0089H28.9803C27.415 28.0156 27.6258 25.0703 29.5808 23.2175ZM17.5506 31.5742C17.8317 31.8808 18.1 32.2067 18.3492 32.5453C21.9844 32.7114 25.2108 35.2733 26.0669 38.9917C26.8144 42.2628 25.5175 45.5211 23.0194 47.4378C24.6039 47.8147 26.0925 48.4856 27.415 49.4119C29.2039 47.7572 31.44 46.5369 33.9892 45.9492C37.0942 45.24 40.1864 45.585 42.9017 46.7478C44.1092 45.9747 45.5467 45.5211 47.0864 45.5339C51.3286 45.5594 54.7467 49.0158 54.7211 53.2517C54.7211 53.3858 54.7147 53.52 54.7083 53.6478C57.0147 53.8203 58.8292 55.7497 58.8164 58.1008C58.8164 58.4458 58.7653 58.7844 58.695 59.1039C65.6078 58.2925 72.1692 62.8031 73.76 69.7414C73.8431 70.1119 73.9069 70.4825 73.9644 70.8531C76.5583 72.0478 78.7306 74.1178 80.0275 76.7756C79.6122 77.2356 79.1778 77.6955 78.7433 78.1364C70.9169 86.1161 60.0303 91.0803 48 91.0803C24.2461 91.0803 4.91972 71.7539 4.91972 48C4.91972 41.3556 6.43389 35.0561 9.13 29.4339C9.37917 28.9164 9.64111 28.4181 9.90944 27.9133C12.2414 28.0731 14.4519 28.9292 16.2408 30.3539C16.7519 30.6669 17.1992 31.0758 17.5506 31.5742ZM48 2C30.5328 2 14.2858 12.1775 6.61917 27.9325C6.24222 28.6992 5.91639 29.4147 5.61611 30.1239C3.21389 35.7908 2 41.8092 2 48C2 73.3639 22.6361 94 48 94C59.8386 94 71.0958 89.483 79.7017 81.2861C88.9208 72.5014 94 60.6819 94 48C94 22.6361 73.3639 2 48 2Z" fill="white"/>
<path d="M17.4356 58.318C17.8444 58.2222 18.2469 58.1966 18.6558 58.1519C18.2469 58.1966 17.8444 58.2222 17.4356 58.318C16.2536 58.5864 15.1675 59.04 14.19 59.6342V59.6405C15.1675 59.04 16.2536 58.5864 17.4356 58.318Z" fill="white"/>
<path d="M12.4906 56.6378C11.9092 55.9414 11.2447 55.3153 10.4972 54.8106C11.2447 55.3153 11.9092 55.9414 12.4906 56.6378Z" fill="white"/>
<path d="M30.0856 65.1478C30.4561 65.3714 30.7947 65.6334 31.1142 65.9209C30.7947 65.6334 30.4561 65.3714 30.0856 65.1478C29.4275 63.3845 28.3286 61.8831 26.9678 60.7075C28.3286 61.8831 29.4275 63.3845 30.0856 65.1478Z" fill="white"/>
<path d="M33.1458 70.0928C33.1267 69.8628 33.0819 69.6264 33.0372 69.39C33.0819 69.6264 33.1267 69.8628 33.1458 70.0928Z" fill="white"/>
<path d="M18.2405 42.135C18.2278 41.2086 18.1447 40.2694 17.9339 39.3239C17.7933 38.7361 17.5889 38.1867 17.3844 37.6308C17.5889 38.1867 17.7933 38.7361 17.9275 39.3239C18.1447 40.2694 18.2278 41.2086 18.2405 42.135Z" fill="white"/>
<path d="M11.4428 30.5008C11.4108 30.4753 11.3725 30.4625 11.3405 30.4433C11.3725 30.4625 11.4108 30.4753 11.4428 30.5008Z" fill="white"/>
<path d="M41.9433 68.8724C43.6492 67.3774 45.8917 66.2658 48.4408 65.7291C49.5525 65.4991 50.7217 65.3713 51.9228 65.3713C53.8139 65.3713 55.6092 65.678 57.2383 66.2274C55.6092 65.678 53.8139 65.3713 51.9228 65.3713C50.7217 65.3713 49.5525 65.4991 48.4408 65.7291C45.8917 66.2658 43.6428 67.3774 41.9433 68.8724C41.0872 68.7063 40.1928 68.6169 39.2664 68.6169C38.1355 68.6169 37.043 68.7574 36.0144 69.0066C37.043 68.7574 38.1355 68.6169 39.2664 68.6169C40.1928 68.6169 41.0872 68.7063 41.9433 68.8724Z" fill="white"/>
<path d="M31.3314 66.1381C32.0469 66.8536 32.59 67.7608 32.8967 68.8022C32.5964 67.7608 32.0533 66.8536 31.3314 66.1381Z" fill="white"/>
<path d="M65.6525 72.9295C67.3392 72.5398 69.0195 73.2745 69.9267 74.6289C72.3673 74.2839 74.7503 74.8909 76.667 76.2006C74.7503 74.8909 72.3673 74.2775 69.9331 74.6289C69.0195 73.2745 67.3456 72.5398 65.6525 72.9295C65.3714 72.9934 65.0967 73.0892 64.8411 73.2106C65.0967 73.0892 65.3714 72.9934 65.6525 72.9295Z" fill="white"/>
<path d="M33.7017 52.1273H36.5319C38.0589 51.0411 40.1736 50.9581 41.8731 52.0953L41.8603 52.1273H43.5725C43.5981 51.1561 44.5372 50.3703 45.7 50.3703C46.882 50.3639 47.8403 51.1753 47.8403 52.1656H45.6936L45.6872 52.172H45.7C45.7 52.9067 44.2433 53.5392 42.1542 53.8203V62.8414C39.9372 62.8414 38.0333 61.4998 37.2156 59.5831L36.8386 60.19C34.6025 58.695 33.9125 55.6667 35.3053 53.4306C35.3117 53.4242 35.3181 53.4114 35.3245 53.405C34.3278 53.0792 33.7017 52.6511 33.7017 52.172H33.7272C33.7208 52.1592 33.7017 52.14 33.7017 52.1273ZM9.13 29.4339C9.89667 29.7086 10.6378 30.0409 11.3406 30.4434C11.3725 30.4625 11.4108 30.4753 11.4428 30.5009C13.9728 31.9767 16.03 34.2575 17.2056 37.075C17.2822 37.2539 17.3206 37.452 17.3844 37.6309C17.5889 38.1867 17.7933 38.7361 17.9339 39.3239C18.1447 40.2695 18.2278 41.2086 18.2406 42.135C18.2789 43.86 18.0169 45.5403 17.4483 47.1056C17.41 47.2142 17.3781 47.3164 17.3333 47.4123C16.0875 50.6003 13.6725 53.2773 10.4972 54.8106C11.2447 55.3153 11.9092 55.9414 12.4906 56.6378C13.2189 57.5131 13.8131 58.5098 14.19 59.6342C15.1675 59.04 16.2536 58.5864 17.4356 58.3181C17.8444 58.2223 18.2469 58.2031 18.6558 58.152C21.7481 57.807 24.7253 58.7781 26.9678 60.7075C28.3286 61.8831 29.4275 63.3845 30.0856 65.1478C30.4561 65.3714 30.8011 65.6334 31.1142 65.9209C31.1333 65.94 31.1589 65.9528 31.1781 65.972C31.2356 66.0231 31.2803 66.0806 31.3314 66.1381C32.0533 66.86 32.5964 67.7609 32.8967 68.8023C32.9286 68.9173 32.9733 69.0259 32.9989 69.1409C33.0181 69.2239 33.0244 69.307 33.0372 69.39C33.0819 69.6264 33.1267 69.8628 33.1458 70.0928C33.3439 69.9906 33.5611 69.9075 33.7719 69.8117C34.3789 69.5242 35.0242 69.2814 35.7078 69.0961C35.7908 69.0706 35.8611 69.0386 35.9442 69.0195C35.9697 69.0131 35.9953 69.0131 36.0144 69.0067C37.0431 68.7575 38.1356 68.617 39.2664 68.617C40.1864 68.617 41.0872 68.7064 41.9433 68.8725C43.6492 67.3775 45.8917 66.2659 48.4472 65.7292C49.5525 65.4928 50.7217 65.3714 51.9228 65.3714C53.8139 65.3714 55.6092 65.6781 57.2383 66.2275C59.9472 67.1475 62.1897 68.7511 63.6081 70.7573C64.1447 71.5239 64.5664 72.3417 64.8411 73.2106C65.0967 73.0892 65.3714 72.9934 65.6525 72.9295C67.3456 72.5398 69.0195 73.2745 69.9331 74.6289C72.3672 74.2839 74.7503 74.8909 76.6669 76.2006C77.4464 76.7373 78.1492 77.3889 78.7433 78.1364C79.1842 77.6956 79.6122 77.2356 80.0275 76.7756C78.7306 74.1178 76.5647 72.0478 73.9581 70.8531C73.907 70.4825 73.8431 70.112 73.76 69.7414C72.1692 62.8031 65.6078 58.2861 58.6886 59.1039C58.7717 58.7845 58.8164 58.4459 58.8164 58.1009C58.8292 55.7498 57.0147 53.8203 54.7083 53.6478C54.7147 53.52 54.7211 53.3859 54.7211 53.2517C54.7403 49.0159 51.3286 45.5595 47.0864 45.5339C45.5467 45.5211 44.1092 45.9684 42.9017 46.7478C40.1864 45.585 37.0942 45.24 33.9892 45.9492C31.44 46.5306 29.2039 47.7573 27.4086 49.412C26.0925 48.4856 24.6039 47.8148 23.0194 47.4378C25.5175 45.5211 26.8144 42.2628 26.0669 38.9917C25.2108 35.2734 21.9908 32.7114 18.3492 32.5453C18.1 32.2067 17.8317 31.8809 17.5442 31.5742C17.1992 31.0759 16.7519 30.667 16.2408 30.3539C14.4519 28.9292 12.2478 28.0731 9.90945 27.9134C9.64112 28.4181 9.37917 28.9164 9.13 29.4339Z" fill="#7FBCD3"/>
<path d="M81.2797 51.482C80.5131 51.482 79.7975 51.7886 79.2289 52.2997C78.3344 50.6833 76.7947 49.61 75.0506 49.61C73.2808 49.61 71.7219 50.7217 70.8339 52.3892C70.8019 52.3892 70.77 52.3828 70.7381 52.3828C69.2558 52.3828 68.0547 53.8203 68.0547 55.59H84.7169C84.7169 53.322 83.1836 51.482 81.2797 51.482Z" fill="#7FBCD3"/>
<path d="M76.6669 76.2006C74.7503 74.8909 72.3672 74.2839 69.9267 74.6289C69.0194 73.2745 67.3456 72.5397 65.6589 72.9295C65.3714 72.9934 65.0967 73.0892 64.8411 73.2106C64.5664 72.3417 64.1447 71.5239 63.6081 70.7572C62.1897 68.7511 59.9472 67.1475 57.2383 66.2275C55.6092 65.6781 53.8139 65.3714 51.9228 65.3714C50.7153 65.3714 49.5525 65.4992 48.4472 65.7292C45.8917 66.2659 43.6492 67.3775 41.9433 68.8725C41.0872 68.7064 40.1928 68.617 39.2664 68.617C38.1355 68.617 37.043 68.7575 36.0144 69.0067C35.9953 69.0131 35.9697 69.0131 35.9442 69.0195C35.8675 69.045 35.7908 69.077 35.7078 69.0961C35.0242 69.2814 34.3789 69.5242 33.7719 69.8117C33.5611 69.9075 33.3439 69.9906 33.1458 70.0928V70.0992C33.1267 69.8628 33.0819 69.6264 33.0372 69.39C33.0244 69.307 33.018 69.2239 32.9989 69.1472C32.9733 69.0259 32.9286 68.9172 32.8967 68.8022C32.59 67.7609 32.0469 66.86 31.3314 66.1317C31.2803 66.0806 31.2355 66.0231 31.178 65.972C31.1589 65.9528 31.1333 65.94 31.1142 65.9209C30.8011 65.6334 30.4561 65.3714 30.0855 65.1478C29.4275 63.3845 28.3286 61.8831 26.9678 60.7075C24.7253 58.7781 21.748 57.8006 18.6494 58.152C18.2469 58.1967 17.8444 58.2222 17.4355 58.3181C16.26 58.5864 15.1675 59.04 14.19 59.6406V59.6342C13.813 58.5097 13.2189 57.5131 12.4905 56.6378C11.9092 55.9414 11.2447 55.3153 10.4972 54.817C13.6725 53.2772 16.0875 50.6003 17.3333 47.4122C17.3717 47.31 17.41 47.2078 17.4483 47.1056C18.0169 45.5403 18.2789 43.86 18.2405 42.135C18.2278 41.2086 18.1447 40.2695 17.9275 39.3239C17.7933 38.7361 17.5889 38.1867 17.3844 37.6309C17.3205 37.452 17.2822 37.2539 17.2055 37.075C16.03 34.2575 13.9728 31.9767 11.4428 30.5009C11.4108 30.4753 11.3725 30.4625 11.3405 30.4434C10.6378 30.0409 9.89665 29.7086 9.12999 29.4339C6.43388 35.0561 4.91971 41.3556 4.91971 48C4.91971 71.7539 24.2461 91.0803 48 91.0803C60.0303 91.0803 70.9169 86.1161 78.7433 78.1364C78.1428 77.3889 77.4464 76.7372 76.6669 76.2006Z" fill="#04223F"/>
<path d="M36.6789 38.4997C34.89 38.4997 33.4397 39.6241 33.4397 41.0233H45.2783C45.2783 38.9916 43.17 37.3497 40.5697 37.3497C39.2025 37.3497 37.9822 37.8033 37.1197 38.5252C36.9792 38.5061 36.8322 38.4997 36.6789 38.4997Z" fill="#7FBCD3"/>
<path d="M33.3375 32.1428C37.2219 32.1428 40.3653 31.1908 40.3844 30.0217L42.8953 30.0153C42.8953 28.8525 41.7708 27.9133 40.3844 27.9133C39.0044 27.9133 37.8864 28.8525 37.88 30.0089H36.1933L40.5569 21.6139C37.7139 20.1381 34.2639 21.1603 32.8391 23.8947C32.4878 24.5783 32.2897 25.3067 32.245 26.035L29.5808 23.2175C27.6258 25.0703 27.4086 28.0156 28.9803 30.0089L26.2905 30.0153C26.2905 31.1908 29.4466 32.1428 33.3375 32.1428Z" fill="#04223F"/>
<path d="M63.3717 39.8222C70.2653 39.8222 75.8556 38.1292 75.8683 36.0464H80.315C80.315 33.9828 78.3217 32.3089 75.8683 32.3089C73.4086 32.3089 71.4217 33.9828 71.4153 36.0464H67.8758L67.8822 18.2917C63.9275 18.2917 60.535 20.5917 59.0592 23.8819L58.3756 22.815C54.4144 25.3706 53.2006 30.5264 55.6603 34.3406C56.0883 35.005 56.625 35.5544 57.2 36.0464H50.875C50.875 38.1292 56.4717 39.8222 63.3717 39.8222Z" fill="#04223F"/>
<path d="M35.3244 53.405C35.318 53.4114 35.3117 53.4242 35.3053 53.4305C33.9125 55.6667 34.6025 58.695 36.8386 60.19L37.2155 59.583C38.0333 61.4997 39.9372 62.8414 42.1542 62.8414V53.8203C44.2433 53.5392 45.7 52.9067 45.7 52.1719H45.6872L45.6936 52.1655H47.8403C47.8403 51.1753 46.8819 50.3639 45.7 50.3702C44.5372 50.3702 43.5981 51.1561 43.5725 52.1272H41.8603L41.873 52.0953C40.1672 50.958 38.0589 51.0411 36.5319 52.1272H33.7017C33.7017 52.14 33.7208 52.1528 33.7208 52.1719H33.7017C33.7017 52.6511 34.3278 53.0792 35.3244 53.405Z" fill="#04223F"/>
</svg>
